<svg xmlns="http://www.w3.org/2000/svg" viewBox="0 0 48 48" id="locker"><g fill="#010101"><path d="M38 3H10C7.2 3 5 5.2 5 8v28c0 2.8 2.2 5 5 5h1v3c0 .6.4 1 1 1h4c.6 0 1-.4 1-1v-3h14v3c0 .6.4 1 1 1h4c.6 0 1-.4 1-1v-3h1c2.8 0 5-2.2 5-5V8c0-2.8-2.2-5-5-5zM15 43h-2v-2h2v2zm20 0h-2v-2h2v2zm6-7c0 1.7-1.3 3-3 3H10c-1.7 0-3-1.3-3-3V8c0-1.7 1.3-3 3-3h28c1.7 0 3 1.3 3 3v28z"></path><path d="M36 9H12c-.6 0-1 .4-1 1v3h-1c-.6 0-1 .4-1 1v4c0 .6.4 1 1 1h1v6h-1c-.6 0-1 .4-1 1v4c0 .6.4 1 1 1h1v3c0 .6.4 1 1 1h24c.6 0 1-.4 1-1V10c0-.6-.4-1-1-1zm-25 6h2v2h-2v-2zm0 12h2v2h-2v-2zm24 6H13v-2h1c.6 0 1-.4 1-1v-4c0-.6-.4-1-1-1h-1v-6h1c.6 0 1-.4 1-1v-4c0-.6-.4-1-1-1h-1v-2h22v22z"></path><path d="M24 29c1.8 0 3.6-.7 4.9-2 2.7-2.7 2.7-7.2 0-9.9s-7.2-2.7-9.9 0-2.7 7.2 0 9.9c1.4 1.3 3.2 2 5 2zm-3.5-10.5c1-1 2.3-1.5 3.5-1.5s2.6.5 3.5 1.5c1.9 1.9 1.9 5.1 0 7.1-1.9 1.9-5.1 1.9-7.1 0-1.9-2-1.9-5.2.1-7.1z"></path><path d="M21.9 24.1c.2.2.5.3.7.3s.5-.1.7-.3l.7-.7.7.7c.2.2.5.3.7.3s.5-.1.7-.3c.4-.4.4-1 0-1.4l-.7-.7.7-.7c.4-.4.4-1 0-1.4s-1-.4-1.4 0l-.7.7-.7-.7c-.4-.4-1-.4-1.4 0s-.4 1 0 1.4l.7.7-.7.7c-.4.4-.4 1 0 1.4z"></path></g></svg>